<svg width="168" height="189" viewBox="0 0 168 189" fill="none" xmlns="http://www.w3.org/2000/svg">
<circle cx="69.9713" cy="97.8914" r="41.7293" stroke="#FFD700"/>
<path d="M112.201 60.5223C112.201 59.4152 112.831 57.1915 113.787 55.3591C114.811 53.3978 117.44 52.7345 121.332 52.3313C123.854 52.07 126.975 51.4557 129.372 50.9809C131.349 50.5896 133.188 49.7092 135.099 48.9934C137.209 48.2032 138.914 46.2161 140.825 44.7798C142.539 43.4916 143.371 41.4442 144.566 39.533C145.442 37.6219 146.239 36.1903 146.477 34.9234C146.558 34.1289 146.558 33.0265 147.036 31.4136" stroke="#FFD700" stroke-width="2" stroke-linecap="round"/>
<path d="M112.201 134.486C113.278 134.232 115.587 134.333 117.59 134.843C119.735 135.388 120.985 137.794 122.272 141.489C123.107 143.883 124.422 146.779 125.436 149.003C126.271 150.836 127.551 152.423 128.687 154.119C129.942 155.99 132.268 157.193 134.105 158.722C135.753 160.094 137.937 160.433 140.072 161.156C142.133 161.569 143.709 162.015 144.997 161.956C145.789 161.852 146.862 161.599 148.541 161.692" stroke="#FFD700" stroke-width="2" stroke-linecap="round"/>
<path d="M72.8297 149.757C73.9326 149.853 76.0928 150.677 77.8346 151.792C79.6989 152.986 80.1299 155.67 80.1915 159.593C80.2314 162.136 80.5706 165.307 80.834 167.744C81.0511 169.752 81.7674 171.666 82.3134 173.638C82.9162 175.814 84.7466 177.691 86.0105 179.726C87.144 181.55 89.1108 182.56 90.9102 183.92C92.7376 184.962 94.0941 185.883 95.3353 186.232C96.1197 186.382 97.2179 186.478 98.7829 187.095" stroke="#FFD700" stroke-width="2" stroke-linecap="round"/>
<path d="M69.9194 46.0608C69.2844 45.154 68.5569 42.9488 68.338 40.865C68.1038 38.6347 70.01 36.4903 73.1636 33.7899C75.2077 32.0396 77.5695 29.6359 79.3828 27.7866C80.8773 26.2624 81.9718 24.4212 83.2236 22.6709C84.6055 20.7386 84.9491 18.0723 85.7876 15.7317C86.5396 13.6326 86.0888 11.4489 86.0323 9.15532C85.6978 7.05649 85.5698 5.39845 85.0507 4.21532C84.6655 3.51507 84.0332 2.61211 83.5232 1.00027" stroke="#FFD700" stroke-width="2" stroke-linecap="round"/>
<path d="M121.653 98.9826C122.323 98.1009 124.169 96.7109 126.039 95.8303C128.041 94.8876 130.536 95.9493 133.879 97.9816C136.046 99.299 138.902 100.697 141.099 101.769C142.91 102.652 144.907 103.064 146.862 103.649C149.02 104.296 151.58 103.745 153.97 103.757C156.114 103.767 158.015 102.64 160.123 101.841C161.976 100.848 163.476 100.19 164.433 99.3256C164.978 98.7419 165.644 97.864 167 96.8681" stroke="#FFD700" stroke-width="2" stroke-linecap="round"/>
<path d="M66.9358 55.6631V56.6631C66.8997 56.663 66.8635 56.6621 66.8274 56.6621C42.6762 56.6621 23.1936 75.1727 23.1936 97.8916C23.1937 120.61 42.6763 139.121 66.8274 139.121C66.8635 139.121 66.8997 139.119 66.9358 139.119V140.119C66.8997 140.119 66.8635 140.121 66.8274 140.121L65.675 140.107C41.9399 139.538 22.8096 121.438 22.2083 98.9814L22.1936 97.8916C22.1936 74.569 42.1769 55.6621 66.8274 55.6621L66.9358 55.6631Z" fill="#FFD700"/>
<path d="M53.1201 106.625V107.625C53.1152 107.625 53.1104 107.625 53.1055 107.625C50.3813 107.625 48.0589 110.01 48.0586 113.098C48.0586 116.185 50.3811 118.571 53.1055 118.571C53.1104 118.571 53.1152 118.57 53.1201 118.57V119.57C53.1152 119.57 53.1104 119.571 53.1055 119.571L52.7949 119.562C49.5996 119.389 47.0586 116.561 47.0586 113.098C47.0589 109.523 49.7661 106.625 53.1055 106.625C53.1104 106.625 53.1152 106.625 53.1201 106.625Z" fill="#FFD700"/>
<path d="M85.8975 93.0623V92.0623C85.9023 92.0623 85.9072 92.0623 85.9121 92.0623C88.6363 92.0621 90.9586 89.677 90.959 86.5896C90.959 83.5019 88.6365 81.1162 85.9121 81.116C85.9072 81.116 85.9023 81.117 85.8975 81.117V80.117C85.9023 80.117 85.9072 80.116 85.9121 80.116L86.2227 80.1248C89.418 80.298 91.959 83.1263 91.959 86.5896C91.9586 90.1642 89.2515 93.0621 85.9121 93.0623C85.9072 93.0623 85.9023 93.0623 85.8975 93.0623Z" fill="#FFD700"/>
<path d="M37.144 33.8796L39.076 38.5804L44.0482 37.5278L39.3474 39.4598L40.4 44.432L38.468 39.7311L33.4958 40.7838L38.1967 38.8518L37.144 33.8796Z" fill="#FFD700"/>
<path d="M37.144 148.135L39.076 152.836L44.0482 151.783L39.3474 153.715L40.4 158.688L38.468 153.987L33.4958 155.039L38.1967 153.107L37.144 148.135Z" fill="#FFD700"/>
<path d="M3.64819 127.791L5.58019 132.492L10.5524 131.439L5.85152 133.371L6.90414 138.343L4.97215 133.643L-6.26492e-05 134.695L4.70082 132.763L3.64819 127.791Z" fill="#FFD700"/>
<path d="M8.78564 91.0073L10.7176 95.7082L15.6899 94.6556L10.989 96.5876L12.0416 101.56L10.1096 96.8589L5.13739 97.9115L9.83827 95.9795L8.78564 91.0073Z" fill="#FFD700"/>
<path d="M3.64819 51.9632L5.58019 56.6641L10.5524 55.6114L5.85152 57.5434L6.90414 62.5156L4.97215 57.8148L-6.26492e-05 58.8674L4.70082 56.9354L3.64819 51.9632Z" fill="#FFD700"/>
<line x1="86.3972" y1="58.539" x2="86.3972" y2="80.1161" stroke="#FFD700"/>
<line x1="79.2473" y1="97.7789" x2="60.849" y2="104.898" stroke="#FFD700"/>
<line x1="53.7234" y1="119.366" x2="53.7234" y2="136.833" stroke="#FFD700"/>
</svg>
